<svg xmlns="http://www.w3.org/2000/svg" width="215" height="101" viewBox="0 0 215 101" fill="none"><path d="M51.5336 67.6856L51.4041 67.6627C51.2948 67.6627 51.1856 67.6475 51.0738 67.6475C49.5238 67.6618 47.9922 67.9851 46.5686 68.5985C45.1451 69.2119 43.8582 70.103 42.7832 71.2198C42.997 72.6135 43.4628 73.9566 44.1578 75.1834C44.2391 75.064 44.3255 74.9497 44.4118 74.8328L44.7396 74.3704C44.9734 74.0553 45.2097 73.7487 45.4485 73.4506C45.5857 73.2804 45.7204 73.1228 45.855 72.9602C45.9897 72.7976 46.1345 72.6325 46.2742 72.4749C46.4521 72.2717 46.6274 72.076 46.8027 71.8855C46.978 71.6949 47.1661 71.4942 47.3464 71.3087L47.8012 70.8514L48.1214 70.5414C48.3755 70.3026 48.6092 70.0815 48.8404 69.8706C48.9344 69.7893 49.0259 69.703 49.1148 69.6166L49.5163 69.271L49.7703 69.05C49.9609 68.895 50.1337 68.7527 50.2988 68.6231L50.5529 68.4249L50.807 68.2318L51.0433 68.0565L51.2516 67.9066L51.432 67.777L51.5108 67.7237L51.5768 67.6779C51.5768 67.6779 51.5565 67.6907 51.5336 67.6856Z" fill="url(#paint0_linear_203_2691)"></path><path d="M49.6152 36.099C49.8223 35.5999 50.0704 35.1189 50.3571 34.6609C50.5248 34.1833 50.7128 33.7335 50.9135 33.294C49.419 30.4022 47.5385 27.7269 45.3238 25.3413L45.3492 25.3261C45.1841 25.1508 45.0138 24.9805 44.8411 24.8179C44.6683 24.6553 44.5641 24.5283 44.4218 24.3885C38.4281 18.3288 31.4639 13.9409 27.5435 1.45039C27.2157 0.22065 26.4636 0.00976562 26.4636 0.00976562C25.7827 0.327363 24.4462 0.830436 24.4462 0.830436C22.7779 1.91753 21.2429 3.19667 19.8728 4.64161C18.1895 6.3375 16.7842 8.28821 15.7085 10.4219C22.2459 17.282 29.0679 19.5407 35.5698 23.108C35.7603 23.2122 35.9458 23.3214 36.1364 23.4281C36.3269 23.5348 36.5912 23.6822 36.8173 23.8092L36.797 23.8347C42.405 27.1345 47.09 31.7958 50.4181 37.3872C50.1488 36.9552 49.8871 36.5335 49.6152 36.099Z" fill="url(#paint1_linear_203_2691)"></path><path d="M54.8796 48.6884C54.8796 48.6884 54.8796 48.6732 54.8796 48.6656C54.0054 44.7223 52.5124 40.9422 50.4561 37.4658C52.5129 40.9501 54.0058 44.7378 54.8796 48.6884Z" fill="url(#paint2_linear_203_2691)"></path><path d="M36.7868 23.8299L36.8071 23.8045C36.581 23.6723 36.3523 23.5504 36.1262 23.4233C35.9001 23.2963 35.7502 23.2074 35.5596 23.1057C27.4698 18.6645 18.8819 16.2456 10.9699 4.49708C10.2484 3.32324 9.40482 3.33594 9.40482 3.33594C8.79757 3.87713 7.5653 4.8096 7.5653 4.8096C6.16657 6.455 4.96666 8.25955 3.99042 10.1859C3.26546 11.5624 2.67005 13.0033 2.21188 14.49C2.54726 15.176 2.97411 15.9839 3.48226 16.8961C3.89133 17.5516 4.2877 18.3011 4.79585 19.0303C5.30401 19.7595 5.81216 20.5548 6.41178 21.317C7.01141 22.0793 7.65168 22.8542 8.31737 23.6317C8.98305 24.4092 9.75291 25.1053 10.4897 25.8396C11.3002 26.4799 12.0498 27.2269 12.906 27.7833C13.7623 28.3398 14.5651 28.9775 15.4468 29.3815C16.2638 29.8552 17.1228 30.2524 18.013 30.568C18.8641 30.8627 19.6543 31.2312 20.442 31.3455L22.5686 31.8028L24.2455 31.9121L25.7217 32.0086L24.2455 32.0849L22.5381 32.1712L20.3251 31.9604C19.4968 31.9324 18.6533 31.6555 17.731 31.4522C16.7641 31.2296 15.8193 30.92 14.9081 30.5274C13.9147 30.2047 13.0026 29.6483 12.0244 29.1579C11.0462 28.6675 10.1721 27.9866 9.22951 27.3971C8.36056 26.7162 7.45097 26.0531 6.64554 25.3239C5.84011 24.5947 5.0296 23.8705 4.33343 23.0981C3.5966 22.3562 2.93854 21.5965 2.32621 20.8622C1.8892 20.3693 1.51316 19.8739 1.14983 19.3937C0.997395 20.7346 0.955757 22.0858 1.02534 23.4335C1.07334 26.1959 1.57196 28.9318 2.50153 31.5335C2.64127 31.6555 2.77339 31.7724 2.9233 31.8968C3.46448 32.3135 4.02599 32.8141 4.67643 33.2587C5.32687 33.7033 5.99256 34.209 6.72685 34.6587C7.46113 35.1084 8.23352 35.5479 9.02625 35.99C9.81897 36.4321 10.6752 36.765 11.5162 37.1486C12.3852 37.4281 13.2414 37.8143 14.1256 38.01C15.0098 38.2056 15.8762 38.4876 16.7426 38.5461C17.5692 38.686 18.407 38.7489 19.2453 38.7341C20.0431 38.7163 20.818 38.7747 21.5066 38.6248L23.4198 38.3428L24.8528 37.9109L26.1232 37.5298L24.9264 38.0735L23.5239 38.7036L21.6183 39.2448C20.9222 39.4989 20.1294 39.537 19.2961 39.6665C18.4198 39.7954 17.5337 39.8447 16.6486 39.8139C15.7161 39.8673 14.7786 39.7021 13.8055 39.6106C12.8323 39.5192 11.8821 39.2397 10.8988 39.0542C9.95617 38.7722 8.98814 38.513 8.076 38.17C7.16386 37.827 6.25679 37.484 5.42596 37.0673C5.2913 37.0089 5.17188 36.9378 5.04739 36.8768C6.35488 39.0016 7.94657 40.9378 9.77832 42.6316C11.8451 44.3615 14.0823 45.8768 16.4555 47.1542C16.6918 47.2686 16.9154 47.4083 17.1567 47.515V47.5277C22.2866 50.1955 29.5176 52.6804 38.8423 52.8481C46.739 53.5189 52.4228 59.2128 54.6942 66.2736C56.6767 58.2152 56.0041 49.732 52.7766 42.0867C49.5491 34.4414 43.9391 28.0425 36.7817 23.8426L36.7868 23.8299Z" fill="url(#paint3_linear_203_2691)"></path><path d="M70.5818 26.5961C58.9475 21.3849 52.4889 30.486 52.4889 30.486L52.5524 30.5317C51.606 31.7827 50.865 33.1764 50.3571 34.6605C50.0705 35.1185 49.8223 35.5995 49.6152 36.0986C52.4763 40.5129 54.4033 45.4662 55.2777 50.6534C56.1521 55.8406 55.9552 61.1519 54.6993 66.2602C54.6993 66.2602 68.6736 62.9571 66.4581 43.8175C66.8544 38.525 69.9821 33.8347 70.9146 32.7701C73.2394 32.2239 76.235 29.1546 76.235 29.1546C76.235 29.1546 74.7918 26.9619 70.5818 26.5961Z" fill="url(#paint4_linear_203_2691)"></path><path style="mix-blend-mode:multiply" d="M51.0713 67.6476C51.1831 67.6476 51.2924 67.6603 51.4016 67.6628C50.7105 67.5205 47.7657 66.9362 42.7198 68.0516C42.5828 69.1048 42.6033 70.1727 42.7807 71.2199C43.8557 70.1032 45.1426 69.212 46.5662 68.5986C47.9897 67.9852 49.5213 67.6619 51.0713 67.6476Z" fill="url(#paint5_linear_203_2691)"></path><path style="mix-blend-mode:multiply" d="M44.1549 75.1833C43.4599 73.9565 42.9941 72.6134 42.7803 71.2197C41.1387 72.9129 40.0491 75.0641 39.6554 77.3893C39.2616 79.7146 39.5822 82.1045 40.5749 84.2438C41.0297 80.5698 42.5948 77.3964 44.4039 74.8429C44.3226 74.9496 44.2362 75.0639 44.1549 75.1833Z" fill="url(#paint6_linear_203_2691)"></path><path d="M51.4013 67.663L51.5233 67.6858C51.2362 67.6325 49.3941 67.1777 46.1089 67.5004C49.0994 67.2005 50.883 67.5563 51.4013 67.663Z" fill="url(#paint7_linear_203_2691)"></path><path d="M40.575 84.2447C39.5823 82.1055 39.2616 79.7155 39.6554 77.3903C40.0491 75.065 41.1387 72.9138 42.7804 71.2207C42.6029 70.1734 42.5824 69.1056 42.7194 68.0523C43.8369 67.804 44.9677 67.6199 46.1062 67.501C43.5633 67.7794 41.0609 68.3506 38.649 69.2033C15.5102 77.1407 21.3921 97.1239 22.1009 98.689C23.5666 99.396 25.1626 99.7922 26.7887 99.8527C26.6764 99.3043 26.5916 98.7505 26.5346 98.1936C26.4225 97.1872 26.3987 96.173 26.4635 95.1624C26.5346 94.6543 26.5524 94.1309 26.6718 93.638C26.76 93.1502 26.884 92.6695 27.0428 92.1999C27.1722 91.7574 27.3423 91.3279 27.5509 90.9168C27.7154 90.5406 27.9135 90.18 28.1429 89.8395C28.3589 89.5295 28.5545 89.2424 28.7273 88.9884L29.2685 88.4065L29.7335 87.8983L29.3371 88.4573L28.8848 89.0925L28.43 89.9894C28.2535 90.3416 28.109 90.709 27.9981 91.087C27.8529 91.4999 27.7457 91.9251 27.678 92.3574C27.5855 92.8131 27.5286 93.2752 27.5077 93.7396C27.4569 94.2071 27.5077 94.6949 27.5077 95.1701C27.5713 96.1075 27.7166 97.0376 27.9422 97.9497C28.0926 98.5868 28.2827 99.2139 28.5113 99.8273C31.0115 99.6698 33.4811 99.0219 35.9685 98.623C35.9253 98.5417 35.8771 98.4731 35.8364 98.3892C35.3094 97.385 34.8707 96.3367 34.5254 95.2565C34.3932 94.6924 34.2001 94.1487 34.1214 93.5821C34.0161 93.0371 33.9507 92.4851 33.9257 91.9306C33.8798 91.4158 33.8798 90.898 33.9257 90.3832C33.9458 89.924 34.0062 89.4675 34.1061 89.0188L34.3602 87.8907C34.4847 87.5706 34.5965 87.2911 34.6854 87.0624C34.8658 86.6051 34.97 86.3459 34.97 86.3459C34.97 86.3459 34.8963 86.6153 34.7718 87.0904C34.7083 87.3241 34.6346 87.5985 34.5457 87.9365C34.5101 88.2718 34.4669 88.6504 34.4187 89.062C34.3729 89.5035 34.3669 89.9483 34.4009 90.3909C34.4082 90.8826 34.4618 91.3726 34.5609 91.8543C34.6444 92.3707 34.7658 92.8803 34.9243 93.3788C35.0589 93.887 35.3028 94.3951 35.4832 94.9033C35.9216 95.868 36.4427 96.7929 37.0407 97.6676C37.2161 97.937 37.4015 98.1758 37.587 98.4172C40.2142 98.1631 42.8744 98.3791 45.6286 100.005C41.1466 94.1411 40.0084 88.8105 40.575 84.2447Z" fill="url(#paint8_linear_203_2691)"></path><path d="M76.3291 80.3951V60.2188H80.125V76.6779H90.4126V80.39L76.3291 80.3951Z" fill="#918F94"></path><path d="M98.5532 80.3951V60.2188H102.364V80.3951H98.5532Z" fill="#918F94"></path><path d="M184.183 80.3951V60.2188H187.981V80.3951H184.183Z" fill="#918F94"></path><path d="M202.306 79.6071C201.111 79.0927 200.025 78.3564 199.105 77.4373C198.161 76.5271 197.422 75.4273 196.935 74.2105C196.392 72.9705 196.114 71.6309 196.119 70.2773C196.118 68.5515 196.56 66.8542 197.402 65.3477C198.245 63.8412 199.459 62.5758 200.929 61.6723C202.4 60.7688 204.078 60.2575 205.802 60.1871C207.527 60.1167 209.24 60.4897 210.779 61.2703C212.185 61.9696 213.404 62.9928 214.337 64.2557L214.771 64.7969L211.869 66.9388L211.46 66.3976C210.86 65.5829 210.076 64.922 209.171 64.4693C208.266 64.0166 207.266 63.7849 206.254 63.7933C205.145 63.7933 204.054 64.0769 203.085 64.6171C202.116 65.1573 201.301 65.9363 200.717 66.88C200.134 67.8237 199.802 68.9009 199.752 70.0092C199.701 71.1176 199.936 72.2203 200.432 73.2127C200.928 74.2052 201.669 75.0544 202.585 75.6797C203.502 76.3051 204.563 76.6858 205.668 76.7858C206.773 76.8857 207.885 76.7016 208.899 76.2509C209.913 75.8002 210.794 75.0978 211.46 74.2105L211.869 73.7023L214.743 75.8162L214.309 76.36C213.376 77.6171 212.162 78.6377 210.763 79.3398C209.364 80.0419 207.82 80.4059 206.254 80.4024C204.899 80.4004 203.557 80.1301 202.306 79.6071Z" fill="#918F94"></path><path d="M123.293 64.9624V73.4232L114.367 60.2188H110.68V80.3951H114.479V67.1627L123.435 80.3951H127.089V64.9624H123.293Z" fill="#918F94"></path><path d="M142.542 69.8661L152.794 60.2188H147.351L139.305 67.7852V60.2188H135.534V80.3951H139.305V72.915L142.534 69.8534L142.542 69.8661Z" fill="#5E5E61"></path><path d="M147.651 70.3867L144.803 73.0368L150.044 80.3949H154.778L147.651 70.3867Z" fill="#5E5E61"></path><path d="M167.553 80.3541V63.9178H162.593V60.1777H176.313V63.9178H171.351V80.3541H167.553Z" fill="#918F94"></path><path d="M81.1182 90.8609H77.1648V90.8838C77.2766 91.7349 77.927 92.3727 78.6537 92.3854C79.1235 92.3638 79.5695 92.1724 79.9088 91.8467L80.7143 92.3295C80.516 92.5528 80.2856 92.7454 80.0308 92.9011C79.617 93.136 79.1521 93.266 78.6765 93.2797C78.3481 93.2816 78.023 93.2126 77.7236 93.0776C77.4241 92.9426 77.1573 92.7446 76.9412 92.4972C76.5326 92.0541 76.287 91.485 76.245 90.8838C76.2399 90.8051 76.2399 90.7262 76.245 90.6475C76.2458 90.4441 76.2679 90.2415 76.3111 90.0428C76.4117 89.5796 76.6325 89.1511 76.9514 88.8003C77.1715 88.5593 77.4395 88.3669 77.7384 88.2357C78.0373 88.1044 78.3603 88.0371 78.6867 88.0381C79.015 88.037 79.3399 88.1042 79.6409 88.2355C79.9418 88.3667 80.2121 88.559 80.4348 88.8003C80.7566 89.1486 80.9771 89.5782 81.0725 90.0428C81.1237 90.3123 81.139 90.5874 81.1182 90.8609ZM80.1019 90.0555V90.0326C80.0096 89.7228 79.8229 89.4495 79.5678 89.251C79.3128 89.0524 79.0021 88.9384 78.6791 88.9248C78.3572 88.942 78.0482 89.0574 77.7938 89.2554C77.5394 89.4535 77.3518 89.7247 77.2562 90.0326V90.0555H80.1019Z" fill="#918F94"></path><path d="M86.5352 88.0605L84.4416 93.1929H83.3998L81.3164 88.0631H82.3581L83.9258 91.9225L85.4833 88.0682L86.5352 88.0605Z" fill="#918F94"></path><path d="M92.2013 90.6263C92.1986 91.3384 91.9145 92.0206 91.411 92.5241C90.9075 93.0277 90.2253 93.3117 89.5131 93.3144C88.8015 93.3144 88.1191 93.0317 87.6159 92.5285C87.1128 92.0254 86.8301 91.3429 86.8301 90.6313C86.8301 89.9197 87.1128 89.2373 87.6159 88.7341C88.1191 88.231 88.8015 87.9483 89.5131 87.9483C89.8658 87.9466 90.2153 88.0146 90.5415 88.1485C90.8677 88.2824 91.1643 88.4794 91.4141 88.7283C91.6639 88.9772 91.8621 89.273 91.9972 89.5987C92.1323 89.9244 92.2016 90.2736 92.2013 90.6263ZM91.2383 90.6263C91.2388 90.2849 91.1381 89.9511 90.9488 89.6671C90.7596 89.3831 90.4903 89.1616 90.1751 89.0306C89.8599 88.8996 89.513 88.8651 89.1781 88.9314C88.8433 88.9976 88.5357 89.1618 88.2942 89.4029C88.0526 89.6441 87.8881 89.9515 87.8213 90.2862C87.7545 90.6209 87.7885 90.9679 87.919 91.2833C88.0495 91.5987 88.2707 91.8683 88.5544 92.058C88.8382 92.2477 89.1718 92.3489 89.5131 92.3489C89.7398 92.3499 89.9644 92.3061 90.174 92.2199C90.3836 92.1337 90.574 92.0069 90.7344 91.8467C90.8948 91.6866 91.0218 91.4963 91.1083 91.2869C91.1948 91.0774 91.239 90.8529 91.2383 90.6263Z" fill="#918F94"></path><path d="M93.2046 93.1933V84.9688H94.1574V93.1933H93.2046Z" fill="#918F94"></path><path d="M95.5679 90.9951V88.0605H96.5308V90.9951C96.5463 91.3591 96.7017 91.703 96.9647 91.9551C97.2277 92.2072 97.578 92.3479 97.9422 92.3479C98.3065 92.3479 98.6567 92.2072 98.9197 91.9551C99.1827 91.703 99.3382 91.3591 99.3536 90.9951V88.0605H100.317V90.9951C100.316 91.303 100.253 91.6075 100.131 91.8904C100.01 92.1733 99.8328 92.4288 99.6103 92.6416C99.1561 93.0661 98.5576 93.3023 97.9359 93.3023C97.3142 93.3023 96.7157 93.0661 96.2615 92.6416C96.0413 92.4277 95.8664 92.1718 95.7473 91.8889C95.6281 91.606 95.5671 91.3021 95.5679 90.9951Z" fill="#918F94"></path><path d="M106.206 92.2044C106.114 92.3162 106.026 92.428 105.924 92.5296C105.416 93.0247 104.735 93.3018 104.026 93.3018C103.317 93.3018 102.636 93.0247 102.128 92.5296C101.752 92.1547 101.496 91.6765 101.393 91.1558C101.29 90.6351 101.343 90.0955 101.547 89.6054C101.751 89.1153 102.096 88.6969 102.538 88.4032C102.981 88.1096 103.5 87.954 104.031 87.9562C104.381 87.952 104.729 88.0172 105.054 88.1481C105.379 88.2789 105.674 88.4728 105.924 88.7185C106.023 88.8155 106.113 88.9209 106.193 89.0335L105.431 89.6027C105.255 89.3658 105.022 89.1779 104.753 89.0567C104.485 88.9355 104.189 88.8851 103.896 88.9103C103.602 88.9354 103.319 89.0354 103.075 89.2006C102.831 89.3657 102.633 89.5906 102.5 89.8539C102.368 90.1172 102.305 90.41 102.317 90.7046C102.329 90.9991 102.417 91.2856 102.571 91.5367C102.726 91.7879 102.942 91.9953 103.199 92.1393C103.457 92.2833 103.746 92.3591 104.041 92.3594C104.314 92.3574 104.583 92.2903 104.825 92.1634C105.066 92.0366 105.274 91.8537 105.431 91.6302L106.206 92.2044Z" fill="#918F94"></path><path d="M107.289 86.5864C107.289 86.4179 107.355 86.2563 107.475 86.1372C107.594 86.0181 107.755 85.9512 107.924 85.9512C108.092 85.9512 108.254 86.0181 108.373 86.1372C108.492 86.2563 108.559 86.4179 108.559 86.5864C108.559 86.7548 108.492 86.9164 108.373 87.0355C108.254 87.1546 108.092 87.2216 107.924 87.2216C107.755 87.2216 107.594 87.1546 107.475 87.0355C107.355 86.9164 107.289 86.7548 107.289 86.5864ZM107.446 88.0524H108.409V93.1924H107.446V88.0524Z" fill="#918F94"></path><path d="M115.028 90.6263C115.024 91.3384 114.739 92.0202 114.235 92.5235C113.731 93.0269 113.049 93.3111 112.337 93.3144C111.625 93.3144 110.943 93.0317 110.44 92.5285C109.936 92.0254 109.654 91.3429 109.654 90.6313C109.654 89.9197 109.936 89.2373 110.44 88.7341C110.943 88.2309 111.625 87.9483 112.337 87.9483C112.69 87.9469 113.039 88.0152 113.365 88.1491C113.691 88.2831 113.988 88.4801 114.238 88.7289C114.488 88.9776 114.686 89.2733 114.822 89.5989C114.957 89.9245 115.027 90.2736 115.028 90.6263ZM114.062 90.6263C114.063 90.2849 113.962 89.9511 113.773 89.6671C113.583 89.383 113.314 89.1615 112.999 89.0306C112.684 88.8996 112.337 88.8651 112.002 88.9314C111.667 88.9976 111.359 89.1617 111.118 89.4029C110.876 89.6441 110.712 89.9515 110.645 90.2862C110.578 90.6209 110.612 90.9679 110.743 91.2833C110.873 91.5987 111.094 91.8683 111.378 92.058C111.662 92.2476 111.996 92.3489 112.337 92.3489C112.563 92.3499 112.788 92.3061 112.998 92.2199C113.207 92.1337 113.398 92.0069 113.558 91.8467C113.718 91.6866 113.846 91.4963 113.932 91.2869C114.019 91.0774 114.063 90.8529 114.062 90.6263Z" fill="#918F94"></path><path d="M120.948 90.4363V93.1931H119.985V90.4363C120.013 90.2214 119.994 90.0029 119.931 89.7955C119.868 89.5882 119.761 89.3967 119.618 89.2338C119.475 89.0709 119.299 88.9405 119.101 88.8511C118.904 88.7617 118.69 88.7155 118.473 88.7155C118.256 88.7155 118.042 88.7617 117.844 88.8511C117.647 88.9405 117.471 89.0709 117.328 89.2338C117.184 89.3967 117.078 89.5882 117.015 89.7955C116.951 90.0029 116.933 90.2214 116.961 90.4363V93.1931H116.008V88.0607H116.971V88.5536C117.401 88.1939 117.936 87.985 118.496 87.9591C118.822 87.9562 119.145 88.0184 119.447 88.1418C119.749 88.2653 120.023 88.4476 120.254 88.6781C120.708 89.1499 120.957 89.7818 120.948 90.4363Z" fill="#918F94"></path><path d="M126.23 88.0607H127.188V93.1931H126.222V92.6011C125.746 93.0286 125.137 93.2774 124.497 93.3049C124.139 93.3159 123.782 93.2549 123.447 93.1253C123.113 92.9958 122.808 92.8004 122.551 92.5507C122.293 92.3011 122.088 92.0023 121.949 91.672C121.809 91.3418 121.737 90.9868 121.737 90.6282C121.737 90.2696 121.809 89.9146 121.949 89.5843C122.088 89.2541 122.293 88.9553 122.551 88.7056C122.808 88.456 123.113 88.2606 123.447 88.131C123.782 88.0015 124.139 87.9404 124.497 87.9515C125.137 87.9786 125.747 88.2284 126.222 88.6578L126.23 88.0607ZM126.23 90.6269C126.228 90.2861 126.125 89.9536 125.934 89.6712C125.744 89.3889 125.473 89.1693 125.158 89.0403C124.843 88.9113 124.496 88.8786 124.162 88.9463C123.828 89.014 123.522 89.1791 123.281 89.4208C123.041 89.6624 122.878 89.9699 122.812 90.3042C122.746 90.6386 122.781 90.9849 122.912 91.2996C123.043 91.6142 123.264 91.8831 123.547 92.0722C123.831 92.2613 124.164 92.3622 124.505 92.3623C124.963 92.3596 125.402 92.1756 125.725 91.8504C126.049 91.5253 126.23 91.0854 126.23 90.6269Z" fill="#918F94"></path><path d="M137.394 90.4363V93.193H136.431V90.4363C136.431 90.0319 136.27 89.6442 135.984 89.3583C135.699 89.0724 135.311 88.9118 134.907 88.9118C134.502 88.9118 134.114 89.0724 133.829 89.3583C133.543 89.6442 133.382 90.0319 133.382 90.4363V93.193H132.419V90.4363C132.447 90.2213 132.429 90.0028 132.366 89.7954C132.302 89.5881 132.196 89.3966 132.053 89.2337C131.91 89.0709 131.733 88.9404 131.536 88.851C131.338 88.7616 131.124 88.7154 130.907 88.7154C130.691 88.7154 130.476 88.7616 130.279 88.851C130.081 88.9404 129.905 89.0709 129.762 89.2337C129.619 89.3966 129.512 89.5881 129.449 89.7954C129.386 90.0028 129.368 90.2213 129.396 90.4363V93.193H128.458V88.0606H129.421V88.5535C129.85 88.1938 130.386 87.985 130.945 87.959C131.609 87.9706 132.241 88.2446 132.704 88.7212C132.791 88.8064 132.871 88.9 132.94 89.0007C133.019 88.9027 133.104 88.8094 133.194 88.7212C133.656 88.2446 134.288 87.9706 134.952 87.959C135.278 87.958 135.6 88.0214 135.901 88.1456C136.202 88.2697 136.475 88.4522 136.705 88.6825C136.935 88.9127 137.118 89.1863 137.241 89.4872C137.365 89.7882 137.428 90.1108 137.427 90.4363H137.394Z" fill="#918F94"></path><path d="M143.65 90.6263C143.647 91.3384 143.363 92.0206 142.859 92.5241C142.356 93.0277 141.673 93.3117 140.961 93.3144C140.25 93.3144 139.567 93.0317 139.064 92.5285C138.561 92.0254 138.278 91.3429 138.278 90.6313C138.278 89.9197 138.561 89.2373 139.064 88.7341C139.567 88.231 140.25 87.9483 140.961 87.9483C141.314 87.9466 141.663 88.0146 141.99 88.1485C142.316 88.2824 142.612 88.4794 142.862 88.7283C143.112 88.9772 143.31 89.273 143.445 89.5987C143.58 89.9244 143.65 90.2736 143.65 90.6263ZM142.687 90.6263C142.687 90.2849 142.586 89.9511 142.397 89.6671C142.208 89.3831 141.939 89.1616 141.623 89.0306C141.308 88.8996 140.961 88.8651 140.626 88.9314C140.292 88.9976 139.984 89.1618 139.742 89.4029C139.501 89.6441 139.336 89.9515 139.27 90.2862C139.203 90.6209 139.237 90.9679 139.367 91.2833C139.498 91.5987 139.719 91.8683 140.003 92.058C140.286 92.2477 140.62 92.3489 140.961 92.3489C141.188 92.3499 141.413 92.3061 141.622 92.2199C141.832 92.1337 142.022 92.0069 142.183 91.8467C142.343 91.6866 142.47 91.4963 142.557 91.2869C142.643 91.0774 142.687 90.8529 142.687 90.6263Z" fill="#918F94"></path><path d="M148.238 91.6685C148.241 91.9571 148.152 92.239 147.984 92.474C147.814 92.7216 147.577 92.9162 147.301 93.0355C147.012 93.1626 146.699 93.2275 146.383 93.226C146.207 93.2239 146.031 93.2052 145.857 93.1701C145.295 93.0578 144.77 92.8032 144.333 92.4308L144.938 91.7702C145.32 92.1348 145.82 92.3495 146.348 92.3749C146.552 92.3749 146.755 92.3325 146.942 92.2504C147.06 92.2042 147.161 92.1243 147.233 92.0207C147.304 91.9171 147.344 91.7946 147.346 91.6685C147.346 91.3204 147.044 91.1096 146.348 90.9851C145.938 90.9119 145.537 90.7952 145.151 90.637C144.932 90.5245 144.748 90.3529 144.621 90.1413C144.494 89.9298 144.428 89.687 144.432 89.4403C144.438 89.1593 144.526 88.8862 144.686 88.6552C144.853 88.4377 145.074 88.2677 145.326 88.1623C145.604 88.0355 145.906 87.9704 146.211 87.9717C146.335 87.9717 146.465 87.9717 146.592 87.9946C147.096 88.0778 147.57 88.2896 147.969 88.6094L147.41 89.2599C147.081 88.9875 146.67 88.8336 146.244 88.8229C146.055 88.817 145.867 88.8553 145.695 88.9346C145.593 88.9776 145.504 89.0477 145.439 89.1372C145.373 89.2267 145.334 89.3324 145.324 89.4428C145.324 89.7782 145.593 89.951 146.277 90.1034C146.682 90.1837 147.079 90.2993 147.463 90.449C147.676 90.5488 147.86 90.6987 148.002 90.886C148.159 91.1166 148.241 91.3897 148.238 91.6685Z" fill="#918F94"></path><path d="M156.406 92.2047C156.319 92.3177 156.226 92.4263 156.127 92.53C155.877 92.7755 155.581 92.9692 155.257 93.1C154.932 93.2308 154.584 93.2961 154.234 93.2922C153.876 93.3032 153.519 93.2422 153.184 93.1126C152.85 92.9831 152.545 92.7877 152.287 92.538C152.03 92.2884 151.825 91.9896 151.685 91.6593C151.546 91.3291 151.474 90.9741 151.474 90.6155C151.474 90.2569 151.546 89.9019 151.685 89.5716C151.825 89.2414 152.03 88.9426 152.287 88.6929C152.545 88.4433 152.85 88.2479 153.184 88.1183C153.519 87.9888 153.876 87.9277 154.234 87.9388C154.584 87.9348 154.932 88.0002 155.257 88.131C155.581 88.2618 155.877 88.4555 156.127 88.701C156.225 88.7981 156.314 88.9035 156.394 89.0161L155.632 89.5852C155.456 89.3483 155.222 89.1603 154.954 89.0391C154.685 88.9179 154.389 88.8676 154.095 88.8928C153.802 88.9181 153.519 89.0183 153.275 89.1836C153.031 89.349 152.833 89.5741 152.7 89.8376C152.568 90.101 152.505 90.394 152.518 90.6887C152.53 90.9833 152.618 91.2698 152.773 91.5209C152.928 91.7719 153.144 91.9792 153.402 92.1229C153.659 92.2667 153.949 92.342 154.244 92.3419C154.517 92.34 154.785 92.2728 155.026 92.1459C155.268 92.019 155.475 91.8362 155.632 91.6127L156.406 92.2047Z" fill="#918F94"></path><path d="M162.312 90.6263C162.309 91.3384 162.025 92.0206 161.521 92.5241C161.018 93.0277 160.336 93.3117 159.623 93.3144C158.912 93.3144 158.229 93.0317 157.726 92.5285C157.223 92.0254 156.94 91.3429 156.94 90.6313C156.94 89.9197 157.223 89.2373 157.726 88.7341C158.229 88.231 158.912 87.9483 159.623 87.9483C159.976 87.9466 160.326 88.0146 160.652 88.1485C160.978 88.2824 161.275 88.4794 161.524 88.7283C161.774 88.9772 161.972 89.273 162.108 89.5987C162.243 89.9244 162.312 90.2736 162.312 90.6263ZM161.349 90.6263C161.349 90.2849 161.248 89.9511 161.059 89.6671C160.87 89.3831 160.601 89.1616 160.285 89.0306C159.97 88.8996 159.623 88.8651 159.288 88.9314C158.954 88.9976 158.646 89.1618 158.405 89.4029C158.163 89.6441 157.998 89.9515 157.932 90.2862C157.865 90.6209 157.899 90.9679 158.029 91.2833C158.16 91.5987 158.381 91.8683 158.665 92.058C158.949 92.2477 159.282 92.3489 159.623 92.3489C159.85 92.3499 160.075 92.3061 160.284 92.2199C160.494 92.1337 160.684 92.0069 160.845 91.8467C161.005 91.6866 161.132 91.4963 161.219 91.2869C161.305 91.0774 161.349 90.8529 161.349 90.6263Z" fill="#918F94"></path><path d="M168.234 90.4363V93.1931H167.269V90.4363C167.297 90.2213 167.278 90.0029 167.215 89.7955C167.152 89.5881 167.045 89.3967 166.902 89.2338C166.759 89.0709 166.583 88.9404 166.386 88.8511C166.188 88.7617 165.974 88.7155 165.757 88.7155C165.54 88.7155 165.326 88.7617 165.128 88.8511C164.931 88.9404 164.755 89.0709 164.612 89.2338C164.469 89.3967 164.362 89.5881 164.299 89.7955C164.235 90.0029 164.217 90.2213 164.245 90.4363V93.1931H163.282V88.0607H164.245V88.5536C164.671 88.1965 165.202 87.9878 165.757 87.9591C166.083 87.9565 166.407 88.0187 166.709 88.1421C167.012 88.2655 167.286 88.4477 167.518 88.6781C167.979 89.1468 168.236 89.7787 168.234 90.4363Z" fill="#918F94"></path><path d="M169.697 91.4884V88.9807H168.935V88.0609H169.697V86.0791H170.66V88.0609H172.238V88.9807H170.66V91.4656C170.663 91.6713 170.743 91.8685 170.884 92.0181C171.025 92.1677 171.217 92.2589 171.422 92.2735H172.284L172.538 93.1907H171.397C171.173 93.1918 170.952 93.1484 170.745 93.0632C170.538 92.978 170.35 92.8526 170.192 92.6942C170.034 92.5359 169.909 92.3478 169.824 92.1409C169.739 91.9339 169.696 91.7121 169.697 91.4884Z" fill="#918F94"></path><path d="M173.448 86.5864C173.448 86.4179 173.515 86.2563 173.634 86.1372C173.753 86.0181 173.914 85.9512 174.083 85.9512C174.251 85.9512 174.413 86.0181 174.532 86.1372C174.651 86.2563 174.718 86.4179 174.718 86.5864C174.718 86.7548 174.651 86.9164 174.532 87.0355C174.413 87.1546 174.251 87.2216 174.083 87.2216C173.914 87.2216 173.753 87.1546 173.634 87.0355C173.515 86.9164 173.448 86.7548 173.448 86.5864ZM173.603 88.0524H174.566V93.1924H173.603V88.0524Z" fill="#918F94"></path><path d="M180.994 88.0609V93.4474C180.992 94.1599 180.709 94.8428 180.205 95.3467C179.701 95.8505 179.018 96.1342 178.306 96.1355C177.798 96.1378 177.299 96.0026 176.863 95.7442C176.689 95.6374 176.528 95.5131 176.38 95.3733L177.109 94.7355C177.454 95.0037 177.87 95.1637 178.306 95.1954C178.766 95.1914 179.207 95.0054 179.531 94.6779C179.855 94.3504 180.037 93.9081 180.036 93.4474V92.6089C179.56 93.0364 178.95 93.2852 178.311 93.3127C177.952 93.3237 177.595 93.2627 177.261 93.1331C176.926 93.0036 176.622 92.8082 176.364 92.5585C176.107 92.3089 175.902 92.0101 175.762 91.6798C175.622 91.3496 175.55 90.9946 175.55 90.636C175.55 90.2774 175.622 89.9224 175.762 89.5921C175.902 89.2619 176.107 88.9631 176.364 88.7134C176.622 88.4638 176.926 88.2684 177.261 88.1388C177.595 88.0093 177.952 87.9482 178.311 87.9593C178.951 87.9864 179.561 88.2362 180.036 88.6656V88.0609H180.994ZM180.036 90.6271C180.034 90.2863 179.931 89.9538 179.74 89.6714C179.549 89.389 179.279 89.1695 178.964 89.0405C178.649 88.9115 178.302 88.8788 177.968 88.9465C177.634 89.0142 177.328 89.1793 177.087 89.421C176.847 89.6626 176.684 89.97 176.618 90.3044C176.552 90.6388 176.587 90.9851 176.718 91.2998C176.849 91.6144 177.07 91.8833 177.353 92.0724C177.637 92.2615 177.97 92.3624 178.311 92.3624C178.769 92.3598 179.208 92.1757 179.531 91.8506C179.855 91.5254 180.036 91.0856 180.036 90.6271Z" fill="#918F94"></path><path d="M187.252 90.6263C187.249 91.3384 186.965 92.0206 186.461 92.5241C185.958 93.0277 185.276 93.3117 184.563 93.3144C183.852 93.3144 183.169 93.0317 182.666 92.5285C182.163 92.0254 181.88 91.3429 181.88 90.6313C181.88 89.9197 182.163 89.2373 182.666 88.7341C183.169 88.231 183.852 87.9483 184.563 87.9483C184.916 87.9466 185.266 88.0146 185.592 88.1485C185.918 88.2824 186.215 88.4794 186.464 88.7283C186.714 88.9772 186.912 89.273 187.047 89.5987C187.183 89.9244 187.252 90.2736 187.252 90.6263ZM186.289 90.6263C186.289 90.2849 186.188 89.9511 185.999 89.6671C185.81 89.3831 185.541 89.1616 185.225 89.0306C184.91 88.8996 184.563 88.8651 184.228 88.9314C183.894 88.9976 183.586 89.1618 183.344 89.4029C183.103 89.6441 182.938 89.9515 182.872 90.2862C182.805 90.6209 182.839 90.9679 182.969 91.2833C183.1 91.5987 183.321 91.8683 183.605 92.058C183.888 92.2477 184.222 92.3489 184.563 92.3489C184.79 92.3499 185.015 92.3061 185.224 92.2199C185.434 92.1337 185.624 92.0069 185.785 91.8467C185.945 91.6866 186.072 91.4963 186.159 91.2869C186.245 91.0774 186.289 90.8529 186.289 90.6263Z" fill="#918F94"></path><defs><linearGradient id="paint0_linear_203_2691" x1="45.3799" y1="71.3722" x2="60.805" y2="71.6644" gradientUnits="userSpaceOnUse"><stop stop-color="#008500"></stop><stop offset="0.11" stop-color="#088D07"></stop><stop offset="0.29" stop-color="#1EA219"></stop><stop offset="0.51" stop-color="#42C536"></stop><stop offset="0.75" stop-color="#73F65F"></stop><stop offset="0.8" stop-color="#7DFF67"></stop></linearGradient><linearGradient id="paint1_linear_203_2691" x1="32.2032" y1="26.3602" x2="40.7275" y2="1.74258" gradientUnits="userSpaceOnUse"><stop stop-color="#008500"></stop><stop offset="0.79" stop-color="#1DD600"></stop></linearGradient><linearGradient id="paint2_linear_203_2691" x1="52.1787" y1="43.4925" x2="54.2774" y2="41.7191" gradientUnits="userSpaceOnUse"><stop stop-color="#008500"></stop><stop offset="0.79" stop-color="#1DD600"></stop></linearGradient><linearGradient id="paint3_linear_203_2691" x1="15.7279" y1="52.5129" x2="48.3968" y2="16.8036" gradientUnits="userSpaceOnUse"><stop stop-color="#00E1FF"></stop><stop offset="0.79" stop-color="#009CFF"></stop></linearGradient><linearGradient id="paint4_linear_203_2691" x1="82.249" y1="32.8083" x2="34.1266" y2="58.0052" gradientUnits="userSpaceOnUse"><stop stop-color="#00E1FF"></stop><stop offset="0.79" stop-color="#007FFF"></stop></linearGradient><linearGradient id="paint5_linear_203_2691" x1="42.8061" y1="71.8221" x2="51.9733" y2="63.28" gradientUnits="userSpaceOnUse"><stop stop-color="#008500"></stop><stop offset="0.79" stop-color="#1DD600"></stop></linearGradient><linearGradient id="paint6_linear_203_2691" x1="38.3136" y1="80.397" x2="53.8251" y2="68.1073" gradientUnits="userSpaceOnUse"><stop stop-color="#008500"></stop><stop offset="0.79" stop-color="#1DD600"></stop></linearGradient><linearGradient id="paint7_linear_203_2691" x1="47.1913" y1="68.8139" x2="53.594" y2="64.0093" gradientUnits="userSpaceOnUse"><stop stop-color="#008500"></stop><stop offset="0.79" stop-color="#1DD600"></stop></linearGradient><linearGradient id="paint8_linear_203_2691" x1="23.4577" y1="97.7871" x2="57.1332" y2="71.9448" gradientUnits="userSpaceOnUse"><stop stop-color="#008500"></stop><stop offset="0.79" stop-color="#1DD600"></stop></linearGradient></defs></svg>